<svg width="660" height="668" viewBox="0 0 660 668" fill="none" xmlns="http://www.w3.org/2000/svg">
<path d="M648.552 359.488L582.692 339.942V139.292C582.692 130.664 575.695 123.667 567.067 123.667H390.092V15.625C390.092 6.99688 383.095 0 374.467 0H285.264C276.634 0 269.639 6.99688 269.639 15.625V123.667H92.6641C84.0344 123.667 77.0391 130.664 77.0391 139.292V339.942L11.1797 359.488C4.54844 361.456 0 367.55 0 374.467C0 438.97 39.6422 527.073 117.855 636.591C117.855 636.591 140.542 667.841 148.588 667.841H511.142C516.077 667.841 520.723 665.509 523.672 661.553C613.955 540.392 659.731 443.803 659.731 374.469C659.733 367.55 655.183 361.456 648.552 359.488ZM300.889 31.25H358.842V46.4203H336.855C328.225 46.4203 321.23 53.4172 321.23 62.0453C321.23 70.6734 328.225 77.6703 336.855 77.6703H358.842V123.667H300.889V31.25ZM108.289 154.917H551.442V329.327L334.227 266.205C331.328 265.367 328.244 265.405 325.353 266.248L108.289 329.328V154.917ZM503.277 636.591H345.491V483.945C345.491 475.317 338.494 468.32 329.866 468.32C321.236 468.32 314.241 475.317 314.241 483.945V636.591H156.456C79.5625 532.295 36.7297 446.15 31.7422 385.983L329.866 297.506L627.991 385.983C623.003 446.148 580.17 532.294 503.277 636.591Z" fill="black"/>
<path d="M314.24 354.195V408.933C314.24 417.561 321.236 424.558 329.865 424.558C338.493 424.558 345.49 417.561 345.49 408.933V354.195C345.49 345.566 338.495 338.57 329.865 338.57C321.236 338.57 314.24 345.567 314.24 354.195Z" fill="black"/>
<path d="M167.676 192.6C157.384 192.6 149.011 200.974 149.011 211.266C149.011 221.558 157.384 229.931 167.676 229.931C177.969 229.931 186.342 221.558 186.342 211.266C186.342 200.974 177.969 192.6 167.676 192.6Z" fill="black"/>
<path d="M249.784 192.6C239.492 192.6 231.119 200.974 231.119 211.266C231.119 221.558 239.492 229.931 249.784 229.931C260.076 229.931 268.45 221.558 268.45 211.266C268.45 200.974 260.078 192.6 249.784 192.6Z" fill="black"/>
<path d="M408.933 229.931C419.225 229.931 427.598 221.558 427.598 211.266C427.598 200.974 419.225 192.6 408.933 192.6C398.641 192.6 390.267 200.974 390.267 211.266C390.267 221.558 398.641 229.931 408.933 229.931Z" fill="black"/>
<path d="M347.517 211.266C347.517 200.974 339.145 192.6 328.851 192.6C318.557 192.6 310.186 200.974 310.186 211.266C310.186 221.558 318.559 229.931 328.851 229.931C339.143 229.931 347.517 221.558 347.517 211.266Z" fill="black"/>
<path d="M492.054 229.931C502.347 229.931 510.72 221.558 510.72 211.266C510.72 200.974 502.347 192.6 492.054 192.6C481.762 192.6 473.389 200.974 473.389 211.266C473.389 221.558 481.762 229.931 492.054 229.931Z" fill="black"/>
<path d="M412.531 401.592L540.254 440.111C541.759 440.564 543.279 440.781 544.773 440.781C551.486 440.781 557.689 436.42 559.726 429.664C562.217 421.4 557.539 412.683 549.278 410.19L421.554 371.672C413.29 369.18 404.575 373.858 402.082 382.12C399.59 390.383 404.268 399.1 412.531 401.592Z" fill="black"/>
<path fill-rule="evenodd" clip-rule="evenodd" d="M551.442 154.917V329.327L334.227 266.205C331.328 265.367 328.244 265.405 325.353 266.248L108.289 329.328V154.917H551.442ZM149.011 211.266C149.011 200.974 157.384 192.6 167.676 192.6C177.969 192.6 186.342 200.974 186.342 211.266C186.342 221.558 177.969 229.931 167.676 229.931C157.384 229.931 149.011 221.558 149.011 211.266ZM231.119 211.266C231.119 200.974 239.492 192.6 249.784 192.6C260.078 192.6 268.45 200.974 268.45 211.266C268.45 221.558 260.076 229.931 249.784 229.931C239.492 229.931 231.119 221.558 231.119 211.266ZM427.598 211.266C427.598 221.558 419.225 229.931 408.933 229.931C398.641 229.931 390.267 221.558 390.267 211.266C390.267 200.974 398.641 192.6 408.933 192.6C419.225 192.6 427.598 200.974 427.598 211.266ZM328.851 192.6C339.145 192.6 347.517 200.974 347.517 211.266C347.517 221.558 339.143 229.931 328.851 229.931C318.559 229.931 310.186 221.558 310.186 211.266C310.186 200.974 318.557 192.6 328.851 192.6ZM510.72 211.266C510.72 221.558 502.347 229.931 492.054 229.931C481.762 229.931 473.389 221.558 473.389 211.266C473.389 200.974 481.762 192.6 492.054 192.6C502.347 192.6 510.72 200.974 510.72 211.266Z" fill="#47FF9B"/>
<path fill-rule="evenodd" clip-rule="evenodd" d="M503.277 636.591H345.491V483.945C345.491 475.317 338.494 468.32 329.866 468.32C321.236 468.32 314.241 475.317 314.241 483.945V636.591H156.456C79.5625 532.295 36.7297 446.15 31.7422 385.983L329.866 297.506L627.991 385.983C623.003 446.148 580.17 532.294 503.277 636.591ZM314.24 408.933V354.195C314.24 345.567 321.236 338.57 329.865 338.57C338.495 338.57 345.49 345.566 345.49 354.195V408.933C345.49 417.561 338.493 424.558 329.865 424.558C321.236 424.558 314.24 417.561 314.24 408.933ZM540.254 440.111L412.531 401.592C404.268 399.1 399.59 390.383 402.082 382.12C404.575 373.858 413.29 369.18 421.554 371.672L549.278 410.19C557.539 412.683 562.217 421.4 559.726 429.664C557.689 436.42 551.486 440.781 544.773 440.781C543.279 440.781 541.759 440.564 540.254 440.111Z" fill="#FF4848"/>
<path d="M300.889 31.25H358.842V46.4203H336.855C328.225 46.4203 321.23 53.4172 321.23 62.0453C321.23 70.6734 328.225 77.6703 336.855 77.6703H358.842V123.667H300.889V31.25Z" fill="#8000FF"/>
</svg>
